<svg width="15" height="14" viewBox="0 0 15 14" fill="none" xmlns="http://www.w3.org/2000/svg">
<path d="M1.22473 5.89578C0.749994 5.89578 0.365142 6.28063 0.365142 6.75537C0.365142 7.23011 0.749993 7.61496 1.22473 7.61496L1.22473 5.89578ZM14.6112 7.36319C14.9469 7.0275 14.9469 6.48324 14.6112 6.14755L9.14078 0.677159C8.80509 0.341469 8.26083 0.341469 7.92514 0.677159C7.58944 1.01285 7.58944 1.55711 7.92514 1.8928L12.7877 6.75537L7.92513 11.6179C7.58944 11.9536 7.58944 12.4979 7.92513 12.8336C8.26082 13.1693 8.80509 13.1693 9.14078 12.8336L14.6112 7.36319ZM1.22473 7.61496L14.0033 7.61496L14.0033 5.89578L1.22473 5.89578L1.22473 7.61496Z" fill="#1D68F4"/>
</svg>
