<svg width="28" height="37" viewBox="0 0 28 37" fill="none" xmlns="http://www.w3.org/2000/svg">
<path fill-rule="evenodd" clip-rule="evenodd" d="M12.4315 21.9769L20.5488 34.7041C20.9899 35.4075 21.1143 36.2573 20.3085 36.2573H2.9004C2.20486 36.1225 2.33492 35.4309 2.77316 34.7247L10.8962 21.9769C11.4079 21.2032 11.9197 21.212 12.4315 21.9769ZM4.74667 7.16598V6.62969C4.74812 6.12514 4.86381 5.62799 5.08444 5.17824C5.30506 4.72849 5.62447 4.3387 6.01695 4.04023C6.40943 3.74176 6.86402 3.54294 7.34415 3.45978C7.82428 3.37662 8.31654 3.41144 8.78132 3.56143C8.98901 3.62865 9.18904 3.71905 9.3779 3.83104V3.47058C9.37953 2.94347 9.50584 2.42481 9.74578 1.96004C9.98572 1.49527 10.332 1.09859 10.7542 0.804726C11.1764 0.510866 11.6616 0.328803 12.1675 0.274485C12.6734 0.220168 13.1844 0.295254 13.6557 0.493166C14.4237 0.823009 15.0339 1.45546 15.3521 2.25148C15.5024 2.63884 15.5773 3.05313 15.5727 3.47058V3.85155C15.7582 3.74598 15.9533 3.6596 16.1551 3.59366C16.6191 3.44742 17.1097 3.41569 17.5877 3.501C18.0657 3.58632 18.5177 3.78631 18.9078 4.085C19.298 4.3837 19.6152 4.77282 19.8344 5.22127C20.0535 5.66973 20.1685 6.16509 20.17 6.66779V20.324C20.1869 20.4501 20.2011 20.5761 20.2095 20.7021C20.218 20.8281 20.2265 20.9658 20.2265 21.0977V21.5754C20.5375 21.2823 20.8259 20.9688 21.0267 20.7636L21.2189 20.5673C21.7394 20.005 22.3822 19.58 23.0935 19.3277C23.7343 19.1045 24.4265 19.0953 25.0726 19.3013C25.3223 19.3837 25.5609 19.4989 25.7823 19.6442C25.9959 19.7943 26.1898 19.9726 26.3591 20.1746C26.5339 20.3792 26.6848 20.6044 26.8086 20.8457C26.9334 21.0863 27.0284 21.3423 27.0914 21.6076C27.2844 22.4176 27.1974 23.2721 26.8454 24.0224C26.4841 24.7434 26.0059 25.3947 25.4317 25.9477C25.0924 26.2994 24.64 26.8034 24.1113 27.3895C23.3027 28.2892 22.3159 29.3852 21.2839 30.4666L20.3566 29.0013C21.4338 27.8731 22.4488 26.7419 23.2122 25.8891C23.6646 25.3821 24.0322 24.9748 24.2696 24.7169L24.2923 24.6905C24.3107 24.6696 24.3306 24.65 24.3516 24.6319C24.3822 24.6068 24.4201 24.5934 24.4591 24.5938L24.4421 24.5733C24.4958 24.5264 24.5665 24.4561 24.6457 24.3711C25.05 23.9286 25.7257 22.9967 25.4939 21.9886C25.453 21.8664 25.399 21.7494 25.3327 21.6399C25.278 21.5277 25.2096 21.4233 25.1292 21.3292C25.0526 21.2415 24.9651 21.1646 24.8691 21.1006C24.7726 21.0353 24.668 20.984 24.558 20.9482C24.2125 20.8439 23.8433 20.8625 23.5091 21.001C23.0812 21.1752 22.6952 21.4443 22.3781 21.7893C22.1859 21.9857 21.6713 22.5219 21.1539 23.0231C20.8966 23.2751 20.6337 23.5213 20.3933 23.7264C20.2204 23.8777 20.0371 24.0158 19.8448 24.1396C19.7771 24.1846 19.7039 24.2201 19.6271 24.2451C19.5509 24.2685 19.4719 24.2803 19.3924 24.2803C19.3635 24.2805 19.3351 24.2724 19.3104 24.2568L18.793 23.9843C18.7682 23.9711 18.747 23.9516 18.7317 23.9274C18.7163 23.9033 18.7072 23.8754 18.7054 23.8465L18.5471 21.1036C18.5471 18.3958 18.5471 16.7664 18.5301 14.3106C18.5301 11.6936 18.5131 9.07668 18.5131 6.66779C18.5132 6.47162 18.4757 6.27738 18.4029 6.09634C18.2933 5.82222 18.1077 5.58793 17.8697 5.4231C17.6316 5.25827 17.3518 5.17029 17.0655 5.17029C16.8717 5.16732 16.6793 5.20521 16.5 5.28165C16.2353 5.39511 16.0088 5.58731 15.8493 5.834C15.6898 6.08069 15.6044 6.37082 15.6038 6.66779V16.6081C15.6038 16.6517 15.5871 16.6934 15.5574 16.7242C15.5277 16.755 15.4874 16.7722 15.4454 16.7722H14.077C14.0355 16.7723 13.9956 16.7554 13.966 16.7252C13.9364 16.6951 13.9194 16.6541 13.9187 16.6111V3.47058C13.9179 3.2719 13.8788 3.07539 13.8035 2.89267C13.7282 2.70995 13.6184 2.54474 13.4804 2.4068C13.2771 2.2018 13.0202 2.06322 12.7415 2.00828C12.4628 1.95334 12.1748 1.98447 11.913 2.09779C11.6513 2.21111 11.4274 2.40163 11.2693 2.64569C11.1111 2.88975 11.0256 3.17659 11.0234 3.47058V16.6111C11.0234 16.6325 11.0193 16.6537 11.0113 16.6734C11.0033 16.6932 10.9916 16.7111 10.9769 16.7261C10.9621 16.7411 10.9447 16.7529 10.9255 16.7608C10.9063 16.7688 10.8858 16.7726 10.8651 16.7722H9.45141C9.43075 16.7726 9.41023 16.7688 9.39103 16.7608C9.37184 16.7529 9.35436 16.7411 9.33962 16.7261C9.32488 16.7111 9.31317 16.6932 9.30518 16.6734C9.29719 16.6537 9.29307 16.6325 9.29308 16.6111V6.62969C9.29414 6.4332 9.25743 6.23845 9.1851 6.05681C9.11277 5.87518 9.00626 5.71029 8.8718 5.57177C8.66896 5.36612 8.41228 5.22678 8.13367 5.17109C7.85506 5.1154 7.5668 5.1458 7.30472 5.25851C7.04264 5.37123 6.8183 5.56129 6.65958 5.80507C6.50086 6.04885 6.41476 6.33561 6.41199 6.62969V16.6111C6.41199 16.6325 6.40788 16.6537 6.39989 16.6734C6.39189 16.6932 6.38019 16.7111 6.36545 16.7261C6.35071 16.7411 6.33323 16.7529 6.31403 16.7608C6.29484 16.7688 6.27431 16.7726 6.25366 16.7722H4.89935C4.87869 16.7726 4.85816 16.7688 4.83897 16.7608C4.81977 16.7529 4.8023 16.7411 4.78755 16.7261C4.77281 16.7111 4.76111 16.6932 4.75311 16.6734C4.74512 16.6537 4.74101 16.6325 4.74101 16.6111V10.0086C4.74965 9.80617 4.71864 9.60403 4.64986 9.41436C4.58108 9.2247 4.47594 9.05144 4.3408 8.90504C4.20566 8.75863 4.0433 8.64211 3.86353 8.56251C3.68376 8.4829 3.4903 8.44187 3.29481 8.44187C3.09933 8.44187 2.90586 8.4829 2.72609 8.56251C2.54632 8.64211 2.38397 8.75863 2.24883 8.90504C2.11369 9.05144 2.00855 9.2247 1.93977 9.41436C1.87099 9.60403 1.83998 9.80617 1.84861 10.0086V20.96C1.77793 22.8648 1.84861 24.9015 1.84861 26.821C1.8481 27.7253 2.01711 28.621 2.34623 29.4585C2.39147 29.5757 2.44236 29.6929 2.49325 29.8072L1.46409 31.4161C1.21115 30.9998 0.993572 30.5615 0.813798 30.1061C0.402003 29.0646 0.190697 27.9496 0.191777 26.824V10.0086C0.193768 9.45481 0.333367 8.9109 0.597117 8.4293C0.860866 7.94769 1.23987 7.54464 1.69759 7.25898C2.15531 6.97333 2.67632 6.81471 3.21037 6.79842C3.74443 6.78213 4.27353 6.90872 4.74667 7.16598ZM24.4421 24.6143H24.4789C24.5015 24.6143 24.4478 24.5997 24.4252 24.585L24.4421 24.6055V24.6143ZM11.0574 32.6117C11.2019 32.4621 11.3936 32.3716 11.5974 32.3568C11.7235 32.3481 11.8499 32.3681 11.9678 32.4154C12.085 32.4617 12.1918 32.5326 12.2816 32.6235C12.4323 32.78 12.522 32.9887 12.5332 33.2096C12.543 33.2845 12.543 33.3604 12.5332 33.4352C12.5219 33.5104 12.5 33.5835 12.4682 33.6521C12.3798 33.8592 12.2178 34.0229 12.0158 34.1093C11.9027 34.1564 11.7815 34.1793 11.6596 34.1767C11.5383 34.1739 11.4189 34.1449 11.309 34.0917C11.1106 33.9975 10.954 33.8289 10.8707 33.6199C10.8452 33.5539 10.8272 33.485 10.817 33.4147C10.7845 33.2321 10.8113 33.0435 10.8934 32.8784C10.9355 32.7827 10.9961 32.6969 11.0715 32.6264L11.0574 32.6117ZM12.3212 30.9648C12.3161 31.09 12.2724 31.2101 12.1966 31.3077C12.1208 31.4053 12.0168 31.4751 11.8999 31.5069C11.7454 31.5577 11.5795 31.5577 11.4249 31.5069C11.308 31.4751 11.204 31.4053 11.1282 31.3077C11.0524 31.2101 11.0087 31.09 11.0036 30.9648C10.8764 29.6461 10.5513 27.5742 10.5626 26.3316C10.5626 25.9507 10.8792 25.725 11.2694 25.6371C11.5251 25.5842 11.7884 25.5842 12.0441 25.6371C12.4484 25.725 12.7651 25.9595 12.7651 26.3492V26.3873L12.3212 30.9648Z" fill="#1D68F4"/>
</svg>
