<svg width="38" height="38" viewBox="0 0 38 38" fill="none" xmlns="http://www.w3.org/2000/svg">
<path d="M5.85844 33.6816C4.8501 33.6816 3.98722 33.3229 3.26977 32.6054C2.55233 31.888 2.19299 31.0245 2.19177 30.015V24.515C2.19177 23.9955 2.36777 23.5604 2.71977 23.2096C3.07177 22.8588 3.50688 22.6828 4.0251 22.6816C4.54333 22.6804 4.97905 22.8564 5.33227 23.2096C5.68549 23.5628 5.86088 23.998 5.85844 24.515V30.015H11.3584C11.8779 30.015 12.3136 30.191 12.6656 30.543C13.0176 30.895 13.193 31.3301 13.1918 31.8483C13.1905 32.3665 13.0145 32.8022 12.6638 33.1554C12.313 33.5087 11.8779 33.6841 11.3584 33.6816H5.85844ZM31.5251 33.6816H26.0251C25.5056 33.6816 25.0705 33.5056 24.7198 33.1536C24.369 32.8016 24.193 32.3665 24.1918 31.8483C24.1905 31.3301 24.3665 30.895 24.7198 30.543C25.073 30.191 25.5081 30.015 26.0251 30.015H31.5251V24.515C31.5251 23.9955 31.7011 23.5604 32.0531 23.2096C32.4051 22.8588 32.8402 22.6828 33.3584 22.6816C33.8766 22.6804 34.3124 22.8564 34.6656 23.2096C35.0188 23.5628 35.1942 23.998 35.1917 24.515V30.015C35.1917 31.0233 34.833 31.8868 34.1156 32.6054C33.3981 33.3241 32.5346 33.6828 31.5251 33.6816ZM2.19177 4.3483C2.19177 3.33997 2.55111 2.47708 3.26977 1.75964C3.98844 1.0422 4.85133 0.682863 5.85844 0.681641H11.3584C11.8779 0.681641 12.3136 0.857641 12.6656 1.20964C13.0176 1.56164 13.193 1.99675 13.1918 2.51497C13.1905 3.03319 13.0145 3.46892 12.6638 3.82214C12.313 4.17536 11.8779 4.35075 11.3584 4.3483H5.85844V9.8483C5.85844 10.3677 5.68244 10.8035 5.33044 11.1555C4.97844 11.5075 4.54333 11.6829 4.0251 11.6816C3.50688 11.6804 3.07177 11.5044 2.71977 11.1536C2.36777 10.8029 2.19177 10.3677 2.19177 9.8483V4.3483ZM35.1917 4.3483V9.8483C35.1917 10.3677 35.0157 10.8035 34.6637 11.1555C34.3117 11.5075 33.8766 11.6829 33.3584 11.6816C32.8402 11.6804 32.4051 11.5044 32.0531 11.1536C31.7011 10.8029 31.5251 10.3677 31.5251 9.8483V4.3483H26.0251C25.5056 4.3483 25.0705 4.1723 24.7198 3.8203C24.369 3.46831 24.193 3.03319 24.1918 2.51497C24.1905 1.99675 24.3665 1.56164 24.7198 1.20964C25.073 0.857641 25.5081 0.681641 26.0251 0.681641H31.5251C32.5334 0.681641 33.3969 1.04097 34.1156 1.75964C34.8342 2.47831 35.193 3.34119 35.1917 4.3483ZM18.6918 28.1816C19.3334 28.1816 19.8761 27.9598 20.3198 27.5161C20.7634 27.0725 20.9846 26.5304 20.9834 25.89C20.9822 25.2495 20.7604 24.7068 20.3179 24.262C19.8755 23.8171 19.3334 23.5958 18.6918 23.5983C18.0501 23.6007 17.5074 23.8226 17.0638 24.2638C16.6201 24.705 16.3989 25.2471 16.4001 25.89C16.4013 26.5328 16.6231 27.0755 17.0656 27.518C17.508 27.9604 18.0501 28.1816 18.6918 28.1816ZM18.6918 9.2983C19.4862 9.2983 20.1816 9.54275 20.7781 10.0316C21.3745 10.5205 21.6721 11.1469 21.6709 11.9108C21.6709 12.6136 21.4491 13.24 21.0054 13.79C20.5618 14.34 20.0808 14.8441 19.5626 15.3025C18.7682 16.0052 18.165 16.6701 17.7531 17.2971C17.3412 17.9241 17.1041 18.6801 17.0418 19.565C17.0112 19.9927 17.164 20.3673 17.5001 20.6888C17.8362 21.0102 18.2334 21.1703 18.6918 21.1691C19.1195 21.1691 19.5094 21.0163 19.8614 20.7108C20.2134 20.4052 20.4194 20.0233 20.4793 19.565C20.5404 19.0455 20.7237 18.5872 21.0293 18.19C21.3348 17.7927 21.7779 17.3039 22.3584 16.7233C23.4279 15.6539 24.1386 14.791 24.4906 14.1346C24.8426 13.4783 25.018 12.6912 25.0168 11.7733C25.0168 10.1233 24.4209 8.77886 23.2293 7.73997C22.0376 6.70108 20.5251 6.18164 18.6918 6.18164C17.439 6.18164 16.3164 6.46458 15.3239 7.03047C14.3315 7.59636 13.5749 8.39814 13.0543 9.4358C12.8709 9.80247 12.8636 10.1771 13.0323 10.5596C13.2009 10.9422 13.4833 11.2092 13.8793 11.3608C14.2753 11.5124 14.6804 11.5124 15.0948 11.3608C15.5091 11.2092 15.8373 10.9648 16.0793 10.6275C16.4154 10.1997 16.8053 9.87152 17.2489 9.64297C17.6926 9.41441 18.1735 9.29952 18.6918 9.2983Z" fill="#1D68F4"/>
</svg>
