<svg width="43" height="40" viewBox="0 0 43 40" fill="none" xmlns="http://www.w3.org/2000/svg">
<path fill-rule="evenodd" clip-rule="evenodd" d="M12.5751 22.3031C16.9854 21.2472 21.5837 21.2472 25.994 22.3031C26.5198 22.4399 26.9719 22.7747 27.2552 23.2372L30.3006 27.485L32.1634 22.3918C32.2652 21.9782 32.5269 21.6215 32.8914 21.3997L34.9696 19.8486C35.0764 19.7694 35.2102 19.7353 35.342 19.7538C35.4738 19.7723 35.5929 19.8419 35.6737 19.9475C35.7531 20.054 35.7872 20.1874 35.7687 20.3189C35.7501 20.4503 35.6804 20.5692 35.5745 20.6497L34.3714 21.5463L34.7132 21.6895L36.0428 20.8202C36.1296 20.7644 36.2349 20.745 36.3359 20.7661C36.437 20.7871 36.5257 20.847 36.5828 20.9327C36.6387 21.0192 36.6582 21.1243 36.6371 21.225C36.616 21.3258 36.556 21.4143 36.4701 21.4713L35.7865 21.9145H37.5228C37.6694 21.9154 37.8097 21.9739 37.9133 22.0772C38.017 22.1806 38.0756 22.3206 38.0765 22.4668C38.0765 22.6136 38.0183 22.7544 37.9145 22.8585C37.8108 22.9626 37.67 23.0216 37.5228 23.0225H36.0189C35.9523 23.2373 35.87 23.4469 35.7728 23.6497L32.5189 32.9395C32.3991 33.2785 32.185 33.5765 31.9015 33.7985C31.6181 34.0206 31.2771 34.1575 30.9185 34.1933C30.5599 34.2291 30.1985 34.1622 29.8766 34.0005C29.5547 33.8388 29.2856 33.5891 29.1009 33.2804L26.1957 28.8213L24.7635 36.6622C24.4457 38.4077 23.3963 39.894 21.7284 39.894H16.8475C15.1795 39.894 14.1337 38.4077 13.8158 36.6622L12.3119 28.4225L9.15709 33.2804C9.03164 33.4955 8.86487 33.6839 8.66634 33.8346C8.4678 33.9853 8.2414 34.0955 8.0001 34.1589C7.7588 34.2222 7.50734 34.2374 7.26013 34.2037C7.01292 34.1699 6.77481 34.0879 6.55944 33.9622C6.16865 33.7325 5.87474 33.3691 5.73229 32.9395L2.49548 23.6497C2.39589 23.4471 2.31135 23.2374 2.24255 23.0225H0.748901C0.601141 23.0225 0.459433 22.9639 0.354952 22.8597C0.25047 22.7555 0.191772 22.6141 0.191772 22.4668C0.192675 22.32 0.251771 22.1795 0.356155 22.076C0.460539 21.9726 0.601731 21.9145 0.748901 21.9145H2.48181L1.79822 21.4713C1.7553 21.4434 1.71834 21.4073 1.68944 21.3651C1.66054 21.3228 1.64027 21.2754 1.62979 21.2253C1.61931 21.1753 1.61883 21.1237 1.62838 21.0735C1.63793 21.0233 1.65731 20.9754 1.68542 20.9327C1.71343 20.8875 1.75043 20.8485 1.79414 20.8181C1.83786 20.7877 1.88735 20.7666 1.93956 20.7561C1.99177 20.7455 2.0456 20.7458 2.09772 20.7568C2.14983 20.7678 2.19912 20.7894 2.24255 20.8202L3.55847 21.6895L3.90026 21.5463L2.67322 20.6395C2.56897 20.5575 2.50122 20.4379 2.48459 20.3065C2.46797 20.1751 2.5038 20.0425 2.58435 19.9372C2.66451 19.8374 2.77969 19.7717 2.90659 19.7533C3.0335 19.735 3.16265 19.7654 3.26794 19.8384L5.34948 21.3895C5.71398 21.6113 5.9757 21.9679 6.07751 22.3815L7.94372 27.485L10.9891 23.2406C11.1579 22.9758 11.3864 22.754 11.6564 22.593C11.9265 22.432 12.2305 22.3362 12.5443 22.3134H12.5751V22.3031ZM19.0145 7.89972C20.2469 7.89972 21.4516 8.26421 22.4762 8.9471C23.5009 9.62999 24.2995 10.6006 24.7712 11.7362C25.2428 12.8718 25.3662 14.1214 25.1257 15.3269C24.8853 16.5325 24.2919 17.6399 23.4205 18.509C22.549 19.3782 21.4388 19.9701 20.2301 20.2099C19.0214 20.4497 17.7686 20.3266 16.63 19.8562C15.4915 19.3858 14.5183 18.5893 13.8337 17.5672C13.149 16.5452 12.7836 15.3437 12.7836 14.1145C12.7836 12.4662 13.44 10.8855 14.6086 9.71999C15.7771 8.55449 17.362 7.89972 19.0145 7.89972ZM33.4657 10.2009V9.99632C33.4567 9.6228 33.4934 9.24959 33.575 8.88495C33.6328 8.63374 33.75 8.39997 33.9168 8.20313C34.071 8.02678 34.2494 7.87299 34.4466 7.74632C34.6278 7.627 34.7884 7.5145 34.932 7.40541C35.0639 7.31132 35.1794 7.19613 35.2738 7.0645C35.3584 6.93989 35.4026 6.79229 35.4002 6.64177C35.4033 6.50949 35.3676 6.3792 35.2977 6.26677C35.2321 6.15961 35.1372 6.07329 35.0243 6.01791C34.9041 5.95905 34.7719 5.92872 34.638 5.92927C34.4899 5.92696 34.3438 5.96339 34.2142 6.03495C34.0868 6.10257 33.9795 6.20252 33.9032 6.32473C33.8237 6.455 33.7834 6.60525 33.787 6.75768H31.596C31.5761 6.22146 31.7243 5.69237 32.0199 5.24404C32.2969 4.85808 32.6805 4.56079 33.1239 4.38836C33.6052 4.20165 34.1181 4.10905 34.6346 4.11563C35.1874 4.1064 35.7373 4.19647 36.2581 4.38154C36.7011 4.53428 37.0912 4.80982 37.3827 5.17586C37.6651 5.55926 37.8096 6.02651 37.7928 6.502C37.8036 6.79781 37.7499 7.09244 37.6354 7.36554C37.521 7.63865 37.3484 7.88371 37.1297 8.08382C36.9164 8.29201 36.6789 8.47399 36.4222 8.62586C36.2363 8.72665 36.063 8.8491 35.9061 8.99063C35.7728 9.10946 35.6658 9.25456 35.5916 9.41677C35.5177 9.60091 35.4817 9.798 35.4857 9.99632V10.2009H33.4657ZM39.4608 1.91677H29.5282C29.3583 1.91613 29.19 1.94856 29.0326 2.01222C28.874 2.0794 28.7301 2.17665 28.6087 2.29859C28.4857 2.41778 28.3879 2.56032 28.321 2.71782C28.254 2.87532 28.2194 3.04458 28.2191 3.21563V13.6509C28.22 13.8205 28.2536 13.9883 28.3182 14.1452C28.3847 14.3029 28.481 14.4465 28.6019 14.5679C28.7249 14.6895 28.8698 14.7867 29.0291 14.8543C29.1866 14.9179 29.3549 14.9504 29.5247 14.9497H30.4681H30.5501C30.8016 14.9758 31.0331 15.098 31.1961 15.2906C31.3551 15.4689 31.4416 15.6998 31.4388 15.9384L31.5824 17.544L34.4432 15.2122C34.6268 15.0356 34.8717 14.9367 35.1268 14.9361H39.8709C40.0408 14.9367 40.2091 14.9043 40.3665 14.8406C40.5246 14.7726 40.6684 14.6755 40.7904 14.5543L40.8143 14.5338C40.9247 14.416 41.0138 14.2798 41.0775 14.1315C41.141 13.9745 41.1735 13.8066 41.1732 13.6372V3.21563C41.1738 3.04622 41.1413 2.87831 41.0775 2.72132C41.011 2.56355 40.9147 2.42003 40.7938 2.29859C40.67 2.17806 40.5252 2.08103 40.3665 2.01222C40.207 1.94768 40.0362 1.91524 39.8641 1.91677H39.4608ZM29.5282 0.894043H39.8641C40.169 0.89519 40.4708 0.955396 40.7528 1.07132C41.0342 1.19046 41.2905 1.36166 41.5081 1.57586C41.7235 1.79244 41.8952 2.0482 42.014 2.32927C42.1302 2.61046 42.1906 2.91149 42.1917 3.21563V13.6509C42.1955 14.2502 41.965 14.8273 41.5492 15.26L41.5218 15.2906C41.3042 15.5048 41.0479 15.676 40.7664 15.7952C40.4845 15.9111 40.1827 15.9713 39.8778 15.9725H35.1405L31.5106 18.9111C31.4261 18.9893 31.3178 19.0373 31.203 19.0475C31.068 19.0588 30.934 19.0164 30.8302 18.9295C30.7265 18.8427 30.6614 18.7184 30.6493 18.5838L30.4203 15.9725H29.5282C29.2232 15.9713 28.9214 15.9111 28.6395 15.7952C28.0678 15.5567 27.6143 15.1019 27.3783 14.5304C27.2604 14.2497 27.2 13.9484 27.2005 13.644V3.21563C27.2 2.91132 27.2604 2.60997 27.3783 2.32927C27.5545 1.90502 27.8527 1.54231 28.2353 1.28689C28.6179 1.03147 29.0678 0.894772 29.5282 0.894043ZM34.5013 13.0475C34.3448 13.0505 34.1893 13.0218 34.0442 12.9632C33.8991 12.9046 33.7674 12.8173 33.6571 12.7065C33.5447 12.5975 33.4563 12.4663 33.3975 12.3213C33.3386 12.1764 33.3106 12.0208 33.3153 11.8645C33.3113 11.7108 33.3397 11.558 33.3986 11.4159C33.4575 11.2738 33.5455 11.1456 33.6571 11.0395C33.7666 10.9302 33.8966 10.8436 34.0397 10.7844C34.1828 10.7253 34.3362 10.6949 34.4911 10.6949C34.6459 10.6949 34.7993 10.7253 34.9424 10.7844C35.0855 10.8436 35.2155 10.9302 35.325 11.0395C35.4399 11.1443 35.5318 11.2717 35.5947 11.4137C35.6577 11.5557 35.6904 11.7092 35.6908 11.8645C35.6893 12.0767 35.629 12.2844 35.5164 12.4645C35.4078 12.6389 35.259 12.785 35.0824 12.8906C34.907 12.9961 34.706 13.0515 34.5013 13.0509V13.0475Z" fill="#1D68F4"/>
</svg>
