<svg width="43" height="36" viewBox="0 0 43 36" fill="none" xmlns="http://www.w3.org/2000/svg">
<path d="M32.5451 12.4211C32.3275 11.748 32.0732 11.0887 31.7833 10.4464C31.7203 10.3081 31.6319 10.1841 31.5233 10.0816C31.4147 9.9791 31.2879 9.90009 31.1503 9.84908C31.0126 9.79808 30.8667 9.77607 30.7209 9.78431C30.5752 9.79256 30.4324 9.8309 30.3007 9.89714C30.1691 9.96338 30.0511 10.0562 29.9536 10.1704C29.856 10.2845 29.7809 10.4178 29.7323 10.5624C29.6838 10.7071 29.6629 10.8605 29.6707 11.0136C29.6785 11.1668 29.715 11.3169 29.7781 11.4553C29.9113 11.7425 30.0308 12.0369 30.1436 12.3313C30.5211 12.305 30.8997 12.3002 31.2777 12.3169C31.7021 12.3281 32.1255 12.3676 32.5451 12.4354V12.4211ZM29.7131 15.2358C30.9333 15.0171 32.1852 15.101 33.369 15.4808C34.5528 15.8606 35.6359 16.5259 36.5318 17.4235C37.4276 18.3211 38.1116 19.4263 38.5291 20.6509C38.9466 21.8755 39.0862 23.1857 38.9366 24.477C38.858 25.1737 38.6938 25.8567 38.4481 26.5091L42.0452 29.4423C42.1244 29.5075 42.1759 29.6028 42.1887 29.7076C42.2015 29.8124 42.1745 29.9183 42.1136 30.0023L40.2313 32.537C40.2008 32.5786 40.1629 32.6134 40.1196 32.6396C40.0763 32.6657 40.0285 32.6826 39.979 32.6892C39.9295 32.6959 39.8792 32.6922 39.8311 32.6784C39.7829 32.6646 39.7378 32.641 39.6984 32.6088L36.255 29.7726C35.3129 30.6323 34.1912 31.2465 32.981 31.5652C31.7708 31.884 30.5061 31.8984 29.2896 31.6072C28.0148 31.3034 26.831 30.6737 25.8433 29.7738C24.8556 28.8739 24.0945 27.7318 23.6275 26.4487C23.1605 25.1656 23.002 23.7811 23.1662 22.4182C23.3303 21.0553 23.812 19.7561 24.5685 18.6357V18.6106C25.7863 16.8195 27.628 15.6066 29.6927 15.2358H29.7131ZM34.7143 18.0326C34.0365 17.5035 33.265 17.122 32.445 16.9105C31.6251 16.699 30.7731 16.6618 29.9393 16.801C29.1055 16.9402 28.3065 17.253 27.5892 17.7211C26.8719 18.1892 26.2509 18.8032 25.7624 19.5269C25.274 20.2507 24.928 21.0697 24.7447 21.9359C24.5615 22.8021 24.5447 23.698 24.6954 24.5711C24.8461 25.4442 25.1612 26.2768 25.6222 27.0202C26.0831 27.7636 26.6808 28.4028 27.38 28.9001H27.4039C28.4267 29.6518 29.6373 30.0707 30.885 30.1045C32.1326 30.1383 33.3622 29.7857 34.4205 29.0904C35.3003 28.507 36.0299 27.705 36.5449 26.7551C37.0599 25.8052 37.3445 24.7367 37.3735 23.6438C37.4026 22.551 37.1752 21.4674 36.7114 20.4888C36.2476 19.5102 35.5617 18.6666 34.7143 18.0326ZM12.5746 20.5457C13.0014 20.5457 13.4106 20.7239 13.7124 21.041C14.0141 21.3581 14.1836 21.7882 14.1836 22.2367C14.1836 22.6852 14.0141 23.1153 13.7124 23.4324C13.4106 23.7495 13.0014 23.9277 12.5746 23.9277C12.1485 23.9267 11.7401 23.7482 11.4391 23.4311C11.1381 23.1141 10.9691 22.6846 10.9691 22.2367C10.9682 22.0147 11.0091 21.7947 11.0894 21.5893C11.1697 21.3839 11.2879 21.1973 11.4371 21.0401C11.5863 20.883 11.7637 20.7584 11.9589 20.6735C12.1541 20.5887 12.3634 20.5452 12.5746 20.5457ZM12.5746 21.4002C12.7321 21.4002 12.8859 21.4492 13.0168 21.5412C13.1477 21.6331 13.2498 21.7637 13.31 21.9166C13.3702 22.0694 13.386 22.2376 13.3553 22.3999C13.3246 22.5622 13.2488 22.7112 13.1375 22.8282C13.0261 22.9452 12.8843 23.0249 12.7299 23.0571C12.5755 23.0894 12.4155 23.0729 12.27 23.0095C12.1246 22.9462 12.0003 22.839 11.9128 22.7014C11.8254 22.5639 11.7787 22.4021 11.7787 22.2367C11.7787 22.0148 11.8625 21.8021 12.0118 21.6452C12.1611 21.4883 12.3635 21.4002 12.5746 21.4002ZM13.4218 21.3499C13.2277 21.1412 12.9706 21.0098 12.6945 20.9781C12.4184 20.9464 12.1404 21.0165 11.9079 21.1763C11.6755 21.3361 11.5031 21.5758 11.4201 21.8544C11.3371 22.1329 11.3488 22.4331 11.453 22.7037C11.5572 22.9743 11.7476 23.1984 11.9916 23.3379C12.2356 23.4773 12.5181 23.5234 12.7909 23.4683C13.0636 23.4132 13.3097 23.2602 13.4871 23.0356C13.6645 22.811 13.7621 22.5286 13.7634 22.2367C13.7645 21.9055 13.6419 21.587 13.4218 21.3499ZM14.105 5.912C14.4773 5.91192 14.8381 6.0475 15.1259 6.29563C15.4136 6.54376 15.6107 6.88909 15.6834 7.27279C15.7561 7.65648 15.6999 8.05479 15.5245 8.39985C15.3491 8.74491 15.0652 9.01537 14.7214 9.16515C14.3775 9.31493 13.9948 9.33475 13.6386 9.22125C13.2823 9.10774 12.9746 8.86793 12.7677 8.54268C12.5608 8.21742 12.4677 7.82684 12.5041 7.4375C12.5405 7.04815 12.7043 6.68413 12.9675 6.40745C13.1167 6.25026 13.2941 6.12558 13.4893 6.04056C13.6845 5.95554 13.8937 5.91185 14.105 5.912ZM14.105 6.76647C14.2625 6.76647 14.4164 6.81553 14.5472 6.90745C14.6781 6.99937 14.7802 7.13001 14.8404 7.28287C14.9006 7.43572 14.9164 7.60392 14.8857 7.76619C14.855 7.92846 14.7792 8.07751 14.6679 8.1945C14.5565 8.31149 14.4147 8.39116 14.2603 8.42344C14.1059 8.45571 13.9459 8.43915 13.8004 8.37583C13.655 8.31252 13.5307 8.2053 13.4432 8.06774C13.3558 7.93017 13.3091 7.76844 13.3091 7.60299C13.3091 7.38113 13.393 7.16836 13.5422 7.01148C13.6915 6.8546 13.8939 6.76647 14.105 6.76647ZM14.9488 6.71621C14.7829 6.53562 14.5691 6.4116 14.3353 6.36022C14.1015 6.30883 13.8583 6.33246 13.6374 6.42803C13.4165 6.5236 13.2281 6.68671 13.0964 6.89622C12.9648 7.10572 12.8961 7.35195 12.8992 7.60299C12.9003 7.80878 12.9495 8.01112 13.0425 8.19223C13.1355 8.37334 13.2693 8.52769 13.4324 8.6417C13.5954 8.75571 13.7825 8.8259 13.9774 8.84611C14.1723 8.86631 14.3689 8.83591 14.5499 8.75757C14.731 8.67923 14.891 8.55536 15.0158 8.39683C15.1407 8.2383 15.2266 8.04997 15.266 7.84839C15.3054 7.64681 15.297 7.43814 15.2417 7.24073C15.1864 7.04332 15.0859 6.8632 14.9488 6.71621ZM19.8782 16.8514C20.2505 16.8521 20.6111 16.9886 20.8984 17.2374C21.1857 17.4863 21.382 17.8321 21.4539 18.2161C21.5257 18.6 21.4686 18.9982 21.2924 19.3429C21.1161 19.6876 20.8316 19.9573 20.4873 20.1062C20.143 20.2551 19.7602 20.2738 19.4042 20.1593C19.0482 20.0448 18.741 19.804 18.535 19.4781C18.3289 19.1522 18.2368 18.7613 18.2743 18.372C18.3119 17.9827 18.4767 17.6191 18.7407 17.3432C18.8895 17.1854 19.0667 17.0603 19.262 16.9752C19.4573 16.8902 19.6668 16.8504 19.8782 16.8514ZM19.8782 17.7059C20.0357 17.7059 20.1895 17.7549 20.3204 17.8468C20.4513 17.9387 20.5533 18.0694 20.6136 18.2222C20.6738 18.3751 20.6896 18.5433 20.6589 18.7056C20.6282 18.8678 20.5524 19.0169 20.4411 19.1339C20.3297 19.2509 20.1879 19.3305 20.0335 19.3628C19.8791 19.3951 19.7191 19.3785 19.5736 19.3152C19.4282 19.2519 19.3039 19.1447 19.2164 19.0071C19.129 18.8695 19.0823 18.7078 19.0823 18.5424C19.0818 18.4322 19.1021 18.3231 19.1419 18.2211C19.1817 18.1192 19.2402 18.0266 19.3142 17.9485C19.3882 17.8705 19.4761 17.8085 19.5728 17.7663C19.6696 17.724 19.7734 17.7058 19.8782 17.7059ZM20.7083 17.652C20.5143 17.4434 20.2574 17.312 19.9814 17.2802C19.7055 17.2485 19.4276 17.3184 19.1952 17.4779C18.9628 17.6375 18.7902 17.8769 18.707 18.1552C18.6238 18.4335 18.6351 18.7336 18.7389 19.0042C18.8427 19.2748 19.0326 19.4991 19.2763 19.6389C19.5199 19.7788 19.8022 19.8254 20.0749 19.7709C20.3476 19.7164 20.5939 19.5641 20.7717 19.3401C20.9495 19.1161 21.0479 18.8341 21.0499 18.5424C21.0515 18.3776 21.0221 18.2142 20.9635 18.0614C20.9049 17.9087 20.8182 17.7695 20.7083 17.652ZM8.75203 12.8914C7.97317 12.3744 7.64864 11.9471 7.83311 11.2183C7.87744 11.044 7.95414 10.8807 8.05881 10.7376C8.16347 10.5946 8.29402 10.4748 8.44293 10.385C8.59185 10.2953 8.7562 10.2373 8.9265 10.2146C9.09681 10.1919 9.26971 10.2048 9.43525 10.2526L14.1597 13.0996L15.1094 13.3366C16.1471 13.6674 17.2536 13.6774 18.2966 13.3653L19.5605 13.0601L24.1005 10.3244C24.4335 10.2311 24.788 10.2804 25.0864 10.4614C25.3848 10.6425 25.6027 10.9405 25.6924 11.2901C25.8769 12.0082 25.4328 12.5683 24.7735 12.9632L19.9021 15.9072V16.1872H19.868C19.5862 16.1886 19.3071 16.2446 19.0447 16.3523L19.0071 16.3703C18.7332 16.4883 18.4847 16.6629 18.2761 16.8837C18.0754 17.0888 17.9142 17.3326 17.8013 17.6017L17.7842 17.6412C17.5613 18.2167 17.5613 18.8609 17.7842 19.4363C17.9001 19.7279 18.0696 19.9927 18.2829 20.2154C18.4791 20.4241 18.7109 20.5922 18.9661 20.7109H19.0071C19.2795 20.832 19.5723 20.8943 19.868 20.894C19.9974 20.8946 20.1267 20.8826 20.254 20.8581C20.4829 23.3712 20.7254 25.8844 20.7254 28.1713C20.7254 29.3453 18.3342 29.5607 18.1155 28.1713L17.2581 21.4325H16.2333L15.3758 28.1893C15.2289 29.5033 12.6908 29.4315 12.7659 28.1893L12.9982 24.5703C13.1495 24.5406 13.2973 24.4937 13.4389 24.4303C13.6927 24.3184 13.9244 24.1576 14.1221 23.9564L14.1631 23.9169C14.3617 23.7107 14.5216 23.4672 14.6345 23.1989V23.1594C14.8088 22.7285 14.8576 22.253 14.7749 21.7929C14.6922 21.3329 14.4817 20.9089 14.17 20.5744C13.9735 20.3661 13.7418 20.1981 13.4867 20.079L13.4492 20.061L13.3023 20L13.5721 15.7994L8.75203 12.8914ZM16.7559 6.78801C17.2562 6.78796 17.746 6.93843 18.1675 7.22164C18.589 7.50484 18.9245 7.90894 19.1345 8.38618C19.3444 8.86342 19.4199 9.39384 19.3522 9.91476C19.2844 10.4357 19.0761 10.9253 18.752 11.3258C18.4279 11.7263 18.0014 12.0209 17.5231 12.1748C17.0447 12.3287 16.5345 12.3354 16.0526 12.1943C15.5707 12.0531 15.1373 11.7698 14.8037 11.378C14.4701 10.9862 14.2502 10.5023 14.17 9.9833C14.4514 9.97713 14.7294 9.91627 14.9898 9.80379C15.2418 9.68827 15.4729 9.52795 15.673 9.32988L15.714 9.29039C15.9106 9.08243 16.0702 8.83927 16.1854 8.57235V8.53286C16.2977 8.24579 16.3557 7.93849 16.3562 7.62812C16.3696 7.36263 16.3396 7.09669 16.2674 6.84187C16.4318 6.80862 16.5988 6.79179 16.7662 6.7916L16.7559 6.78801ZM27.5029 7.86508C27.6768 8.05908 27.9079 8.18561 28.1588 8.2241C28.3851 8.25978 28.6164 8.22133 28.8211 8.11398C29.0259 8.00664 29.1942 7.8356 29.3032 7.62415C29.4122 7.4127 29.4566 7.17109 29.4303 6.93219C29.404 6.69329 29.3084 6.4687 29.1563 6.28897C28.6298 5.6639 28.0588 5.08181 27.4483 4.54772C27.2357 4.36716 26.9673 4.27507 26.6943 4.289C26.4213 4.30292 26.1627 4.42188 25.9677 4.62323C25.7728 4.82458 25.6551 5.09425 25.6371 5.38089C25.6191 5.66753 25.702 5.95113 25.8701 6.17768C25.9181 6.23712 25.9706 6.29235 26.0272 6.34283C26.5598 6.8008 27.0546 7.30522 27.5064 7.85072L27.5029 7.86508ZM22.5223 4.05945C22.7941 4.18228 23.1012 4.18661 23.376 4.07147C23.6509 3.95634 23.8709 3.73118 23.9878 3.44552C24.1047 3.15987 24.1088 2.83712 23.9992 2.54828C23.8897 2.25943 23.6754 2.02816 23.4036 1.90532C22.6751 1.57669 21.9264 1.29962 21.1627 1.07598C20.9179 1.00429 20.6572 1.02301 20.4239 1.12901C20.1907 1.23501 19.9991 1.42188 19.8812 1.65842C19.7633 1.89496 19.7261 2.16686 19.7759 2.42872C19.8258 2.69059 19.9595 2.92657 20.1549 3.09727C20.2757 3.21087 20.4193 3.29433 20.5751 3.34141C21.2385 3.53554 21.8889 3.77541 22.5223 4.05945ZM16.4963 2.80647C16.781 2.785 17.0469 2.64949 17.2393 2.4279C17.4316 2.20632 17.5357 1.91558 17.53 1.61569C17.5243 1.3158 17.4093 1.02966 17.2087 0.816327C17.008 0.602991 16.7372 0.478747 16.4519 0.469238C15.6576 0.484096 14.8653 0.558482 14.0811 0.691831C13.9263 0.702347 13.7753 0.746853 13.6378 0.822479C13.5004 0.898105 13.3795 1.00317 13.2831 1.1309C13.1866 1.25863 13.1167 1.40619 13.0779 1.56406C13.039 1.72193 13.0321 1.8866 13.0575 2.04746C13.0829 2.20832 13.1402 2.36179 13.2255 2.49797C13.3108 2.63416 13.4224 2.75003 13.553 2.83812C13.6835 2.92622 13.8302 2.98457 13.9835 3.00941C14.1369 3.03426 14.2935 3.02506 14.4432 2.98239C15.1212 2.86724 15.8062 2.80365 16.4929 2.79211L16.4963 2.80647ZM10.5216 4.29281C10.7473 4.17505 10.9284 3.98027 11.0352 3.74033C11.142 3.50038 11.1682 3.22945 11.1095 2.97184C11.0508 2.71422 10.9107 2.48515 10.7121 2.32208C10.5134 2.159 10.268 2.07157 10.016 2.07406C9.85472 2.07716 9.69608 2.11762 9.5514 2.19254C8.83423 2.55322 8.14243 2.96714 7.48125 3.43116C7.25854 3.59657 7.10132 3.84212 7.0394 4.12124C6.97748 4.40037 7.01516 4.69367 7.14531 4.94554C7.27545 5.19741 7.48901 5.39033 7.74549 5.48774C8.00197 5.58514 8.28354 5.58025 8.53682 5.47399C8.60292 5.44523 8.6659 5.40912 8.7247 5.36629C9.29941 4.96433 9.89979 4.60804 10.5216 4.29281ZM9.5514 2.19254L7.48125 3.43116L8.73154 5.3627L9.5514 2.19254ZM5.67755 8.25641C5.85536 8.0344 5.94807 7.75073 5.93759 7.46075C5.92712 7.17078 5.81421 6.89531 5.6209 6.68811C5.42759 6.48091 5.16775 6.35685 4.8921 6.34014C4.61645 6.32343 4.34476 6.41527 4.13007 6.59773C4.07082 6.64627 4.01696 6.70167 3.96951 6.76288C3.46168 7.40419 2.9971 8.08199 2.57916 8.79135C2.445 9.02335 2.39174 9.29715 2.42852 9.56587C2.46529 9.83459 2.58981 10.0815 2.78075 10.2644C2.97169 10.4472 3.21717 10.5546 3.47516 10.5682C3.73316 10.5818 3.98762 10.5006 4.19497 10.3387C4.30634 10.2499 4.40128 10.1404 4.47509 10.0156C4.83573 9.4 5.23757 8.81212 5.67755 8.25641ZM2.82854 13.9792C2.89446 13.7148 2.87026 13.4345 2.76012 13.1869C2.64998 12.9393 2.46085 12.74 2.22554 12.6236C1.99022 12.5071 1.72356 12.481 1.4718 12.5496C1.22005 12.6182 0.999073 12.7772 0.847205 12.9991C0.769236 13.1191 0.712529 13.2528 0.679817 13.394C0.471823 14.1922 0.315464 15.0042 0.211813 15.8246C0.156094 16.1288 0.217647 16.4438 0.382933 16.7003C0.548218 16.9569 0.803696 17.1339 1.09316 17.1924C1.38263 17.251 1.68238 17.1863 1.92646 17.0126C2.17055 16.8389 2.33897 16.5704 2.39469 16.2662C2.41018 16.2136 2.42048 16.1594 2.42544 16.1046C2.51398 15.3862 2.64865 14.6785 2.82854 13.9792ZM2.48693 20.4416C2.43981 20.1669 2.30087 19.919 2.09515 19.7426C1.88944 19.5661 1.63049 19.4727 1.36502 19.4792C1.09955 19.4857 0.845024 19.5916 0.64735 19.778C0.449676 19.9643 0.321864 20.2188 0.286967 20.4954C0.271597 20.6074 0.271597 20.721 0.286967 20.8329C0.41642 21.6547 0.601356 22.4657 0.840373 23.2599C0.920212 23.5265 1.08846 23.7542 1.31451 23.9014C1.54056 24.0486 1.80939 24.1057 2.0721 24.0622C2.33481 24.0188 2.57394 23.8776 2.74599 23.6645C2.91804 23.4513 3.01158 23.1804 3.00959 22.9009C3.00783 22.7864 2.99058 22.6728 2.95835 22.5634C2.75205 21.8721 2.59111 21.1668 2.47668 20.4524L2.48693 20.4416ZM4.75179 26.4444C4.58849 26.2314 4.35932 26.0852 4.10411 26.0312C3.8489 25.9773 3.58378 26.019 3.35479 26.1491C3.12581 26.2793 2.94744 26.4896 2.85068 26.7436C2.75392 26.9976 2.74487 27.2792 2.82512 27.5394C2.85779 27.6154 2.89786 27.6876 2.94468 27.7549C3.3884 28.4485 3.87811 29.1083 4.41019 29.7295C4.50865 29.8426 4.62737 29.9343 4.75954 29.9992C4.89172 30.0642 5.03477 30.1011 5.18053 30.1079C5.32629 30.1148 5.4719 30.0914 5.60905 30.0391C5.74621 29.9867 5.87221 29.9066 5.97988 29.8031C6.08754 29.6996 6.17476 29.5748 6.23655 29.4359C6.29833 29.297 6.33348 29.1467 6.33999 28.9935C6.34649 28.8403 6.32422 28.6872 6.27445 28.5431C6.22468 28.399 6.14838 28.2665 6.04991 28.1534C5.59257 27.6133 5.16921 27.0424 4.78254 26.4444H4.75179ZM9.19271 30.9178C8.97628 30.783 8.72277 30.7291 8.47348 30.765C8.2242 30.8009 7.99383 30.9245 7.81991 31.1156C7.646 31.3067 7.53879 31.5541 7.51575 31.8174C7.49271 32.0807 7.55521 32.3445 7.69305 32.5657C7.77858 32.7119 7.89559 32.8349 8.03465 32.9248C8.71222 33.3619 9.41891 33.747 10.1492 34.0772C10.4017 34.2085 10.6921 34.2343 10.962 34.1495C11.2318 34.0647 11.4611 33.8756 11.6036 33.6202C11.7461 33.3649 11.7912 33.0622 11.7299 32.7733C11.6686 32.4844 11.5054 32.2306 11.2731 32.0631C11.1978 32.0046 11.1164 31.9552 11.0306 31.9159C10.3978 31.6307 9.78584 31.2971 9.19954 30.9178H9.19271ZM15.0001 33.0468C14.7385 33.0348 14.4813 33.1203 14.2739 33.2883C14.0665 33.4563 13.9222 33.6959 13.8667 33.9648C13.8111 34.2337 13.8477 34.5146 13.9701 34.7579C14.0925 35.0012 14.2927 35.1912 14.5355 35.2943C14.6037 35.3154 14.6734 35.331 14.7439 35.341C15.5369 35.4452 16.3362 35.486 17.1351 35.463C17.4296 35.4549 17.7089 35.3243 17.9117 35.0997C18.1144 34.8752 18.224 34.5752 18.2163 34.2657C18.2086 33.9562 18.0842 33.6627 17.8706 33.4496C17.6569 33.2365 17.3715 33.1213 17.077 33.1294C16.3923 33.1416 15.7076 33.1056 15.0274 33.0217L15.0001 33.0468ZM21.1183 32.4221C20.8379 32.5174 20.6049 32.7257 20.4707 33.0015C20.4043 33.138 20.364 33.2869 20.3524 33.4398C20.3407 33.5926 20.3577 33.7464 20.4026 33.8923C20.4475 34.0382 20.5192 34.1735 20.6138 34.2902C20.7084 34.407 20.8239 34.503 20.9538 34.5729C21.2162 34.7139 21.5211 34.7397 21.8015 34.6445C22.5556 34.3899 23.2918 34.0804 24.0049 33.7182C24.2492 33.598 24.4425 33.3868 24.5472 33.1255C24.652 32.8642 24.6608 32.5714 24.5719 32.3037C24.2639 32.057 23.9686 31.7934 23.6872 31.5138C23.6258 31.5082 23.5641 31.5082 23.5027 31.5138C23.3404 31.5173 23.1807 31.5577 23.0347 31.6323C22.4133 31.9399 21.773 32.2038 21.1183 32.4221Z" fill="#1D68F4"/>
</svg>
